<svg viewBox="0 0 1024 1024" version="1.1" xmlns="http://www.w3.org/2000/svg" width="128" height="128"><path d="M510.3616 513.1264m-450.816 0a450.816 450.816 0 1 0 901.632 0 450.816 450.816 0 1 0-901.632 0Z" fill="#00B240"></path><path d="M657.92 341.1968c-12.288 0-22.2208-9.9328-22.2208-22.2208V240.4352c0-12.288 9.9328-22.2208 22.2208-22.2208s22.2208 9.9328 22.2208 22.2208V318.976c0.0512 12.288-9.9328 22.2208-22.2208 22.2208z" fill="#FFFFFF"></path><path d="M709.376 258.7136V318.976c0 25.5488-25.9072 46.336-51.4048 46.336-25.5488 0-51.4048-20.7872-51.4048-46.336V258.4064H417.4848V318.976c0 25.5488-25.9072 46.336-51.4048 46.336-25.5488 0-51.4048-20.7872-51.4048-46.336V258.5088c-48.4352 1.9968-87.0912 41.8304-87.0912 90.7264v71.168h565.5552v-71.168c0-47.7696-36.9152-86.8864-83.7632-90.5216z" fill="#FFFFFF"></path><path d="M366.08 341.1968c-12.288 0-22.2208-9.9328-22.2208-22.2208V240.4352c0-12.288 9.9328-22.2208 22.2208-22.2208s22.2208 9.9328 22.2208 22.2208V318.976c0 12.288-9.984 22.2208-22.2208 22.2208zM227.584 465.8176v237.7216c0 50.176 40.6528 90.8288 90.8288 90.8288h383.9488c50.176 0 90.8288-40.6528 90.8288-90.8288V465.8176H227.584z m402.2272 130.2528l-136.0384 110.4384a39.28064 39.28064 0 0 1-30.3616 8.3456 39.24992 39.24992 0 0 1-26.6752-16.7936l-52.224-77.2096a30.6688 30.6688 0 0 1 8.2432-42.6496 30.67904 30.67904 0 0 1 42.6496 8.2432l38.5536 57.0368 117.0944-95.0784a30.68416 30.68416 0 0 1 43.2128 4.5056c10.7008 13.1072 8.704 32.4608-4.4544 43.1616z" fill="#FFFFFF"></path></svg>