<svg viewBox="0 0 1024 1024" version="1.1" xmlns="http://www.w3.org/2000/svg" width="128" height="128"><path d="M588.117333 108.16l54.229334 46.208c8.533333 7.253333 19.2 11.690667 30.336 12.586667l71.082666 5.674666a117.333333 117.333333 0 0 1 107.605334 107.605334l5.674666 71.082666c0.896 11.178667 5.290667 21.76 12.586667 30.293334l46.208 54.272a117.333333 117.333333 0 0 1 0 152.234666l-46.208 54.229334c-7.253333 8.533333-11.690667 19.2-12.586667 30.378666l-5.674666 71.04a117.333333 117.333333 0 0 1-107.605334 107.605334l-71.082666 5.674666a53.333333 53.333333 0 0 0-30.293334 12.586667l-54.272 46.208a117.333333 117.333333 0 0 1-152.234666 0l-54.229334-46.208a53.333333 53.333333 0 0 0-30.378666-12.586667l-71.04-5.674666a117.333333 117.333333 0 0 1-107.605334-107.605334l-5.674666-71.04a53.333333 53.333333 0 0 0-12.586667-30.378666l-46.208-54.229334a117.333333 117.333333 0 0 1 0-152.234666l46.208-54.229334c7.253333-8.533333 11.690667-19.2 12.586667-30.336l5.674666-71.082666a117.333333 117.333333 0 0 1 107.605334-107.605334l71.04-5.674666a53.333333 53.333333 0 0 0 30.378666-12.586667l54.229334-46.208a117.333333 117.333333 0 0 1 152.234666 0z m-110.72 48.682667L423.168 203.093333a117.333333 117.333333 0 0 1-66.773333 27.648l-71.04 5.674667A53.333333 53.333333 0 0 0 236.373333 285.354667l-5.674666 71.04a117.333333 117.333333 0 0 1-27.648 66.773333l-46.250667 54.229333a53.333333 53.333333 0 0 0 0 69.205334l46.250667 54.229333c16 18.773333 25.685333 42.154667 27.648 66.773333l5.674666 71.04a53.333333 53.333333 0 0 0 48.938667 48.938667l71.04 5.674667a117.333333 117.333333 0 0 1 66.773333 27.648l54.229334 46.250666a53.333333 53.333333 0 0 0 69.205333 0l54.229333-46.250666a117.333333 117.333333 0 0 1 66.773334-27.648l71.04-5.674667a53.333333 53.333333 0 0 0 48.938666-48.938667l5.674667-71.04a117.333333 117.333333 0 0 1 27.648-66.773333l46.250667-54.229333a53.333333 53.333333 0 0 0 0-69.205334L820.906667 423.168a117.333333 117.333333 0 0 1-27.648-66.773333l-5.674667-71.04a53.333333 53.333333 0 0 0-48.938667-48.938667l-71.04-5.674667a117.333333 117.333333 0 0 1-66.773333-27.648l-54.229333-46.250666a53.333333 53.333333 0 0 0-69.205334 0z" fill="#d4237a"></path><path d="M405.333333 469.333333a64 64 0 1 1 0-128 64 64 0 0 1 0 128zM618.666667 682.666667a64 64 0 1 1 0-128 64 64 0 0 1 0 128z" fill="#d4237a"></path><path d="M643.242667 404.48l-213.333334 256a32 32 0 1 1-49.152-40.96l213.333334-256a32 32 0 0 1 49.152 40.96z" fill="#d4237a"></path></svg>